<?xml version="1.0" encoding="UTF-8"?>
<svg id="_レイヤー_2" data-name="レイヤー 2" xmlns="http://www.w3.org/2000/svg" viewBox="0 0 59.4 12.4">
  <defs>
    <style>
      .cls-1 {
        fill: #fff;
      }
    </style>
  </defs>
  <g id="_レイヤー_4" data-name="レイヤー 4">
    <path class="cls-1" d="m53.65.02c-2.16-.15-4.11.81-5.33,2.37s-2.99,2.31-4.88,2.31H12.62c-1.67,0-3.29-.65-4.46-1.85-1.06-1.08-2.63-1.66-4.33-1.33C2,1.87.5,3.33.11,5.15c-.66,3.08,1.69,5.82,4.66,5.82,1.31,0,2.49-.53,3.35-1.39,1.19-1.2,2.81-1.88,4.5-1.88h30.83c1.94,0,3.74.91,4.96,2.41,1.14,1.39,2.86,2.29,4.8,2.29,3.45,0,6.25-2.83,6.2-6.29-.05-3.16-2.6-5.86-5.75-6.09Z"/>
  </g>
</svg>