<?xml version="1.0" encoding="UTF-8"?>
<svg id="_レイヤー_2" data-name="レイヤー 2" xmlns="http://www.w3.org/2000/svg" viewBox="0 0 187.25 207.54">
  <defs>
    <style>
      .cls-1 {
        fill: #fff;
        stroke-width: 0px;
      }
    </style>
  </defs>
  <g id="_レイヤー_5" data-name="レイヤー 5">
    <path class="cls-1" d="m187.25,93.46C187.25,41.93,145.33,0,93.79,0H6.33c-.06,0-.11,0-.16,0-.06,0-.11,0-.16,0C2.69,0,0,2.69,0,6v195.54c0,3.31,2.69,6,6,6s6-2.69,6-6v-3.9c.99-5.37,5.2-9.61,10.57-10.64h71.22c.34,0,.68-.04,1.01-.09,51.07-.54,92.45-42.25,92.45-93.45ZM12,138.64c8.44,15.22,21,27.84,36.16,36.36H12v-36.36Zm0-126.64h36.02c-15.1,8.52-27.61,21.11-36.02,36.28V12Zm81.79,162.92c-44.92,0-81.46-36.54-81.46-81.46S48.87,12,93.79,12s81.46,36.54,81.46,81.46-36.54,81.46-81.46,81.46Z"/>
  </g>
</svg>